<svg width="17" height="19" viewBox="0 0 17 19" fill="none" xmlns="http://www.w3.org/2000/svg">
<path fill-rule="evenodd" clip-rule="evenodd" d="M6.12454 3H9C11.2091 3 13 4.79086 13 7V14.1126C13.1381 14.0407 13.2951 14 13.4615 14C14.3112 14 15 13.3112 15 12.4615V5C15 3.34315 13.6569 2 12 2H7.625C6.94901 2 6.36943 2.41276 6.12454 3ZM12.9125 15.8359C12.5281 17.6438 10.9224 19 9 19H4C1.79086 19 0 17.2091 0 15V7C0 4.79086 1.79086 3 4 3H4.05368C4.34985 1.29581 5.8361 0 7.625 0H12C14.7614 0 17 2.23858 17 5V12.4615C17 14.4158 15.4158 16 13.4615 16C13.2588 16 13.0701 15.9397 12.9125 15.8359ZM2 7C2 5.89543 2.89543 5 4 5H9C10.1046 5 11 5.89543 11 7V15C11 16.1046 10.1046 17 9 17H4C2.89543 17 2 16.1046 2 15V7Z" fill="white"/>
</svg>
